Coordinates
version=1
nRows=5
nColumns=61
inDegrees=yes

Units are S.I. units (second, meters, Newtons, ...)
Angles are in degrees.

endheader
time	pelvis_tilt	pelvis_list	pelvis_rotation	pelvis_tx	pelvis_ty	pelvis_tz	hip_flexion_r	hip_adduction_r	hip_rotation_r	knee_angle_r	knee_angle_r_beta	ankle_angle_r	subtalar_angle_r	mtp_angle_r	hip_flexion_l	hip_adduction_l	hip_rotation_l	knee_angle_l	knee_angle_l_beta	ankle_angle_l	subtalar_angle_l	mtp_angle_l	lumbar_extension	lumbar_bending	lumbar_rotation	arm_flex_r	arm_add_r	arm_rot_r	elbow_flex_r	pro_sup_r	wrist_flex_r	wrist_dev_r	arm_flex_l	arm_add_l	arm_rot_l	elbow_flex_l	pro_sup_l	wrist_flex_l	wrist_dev_l	rightChainstay_rx	rightChainstay_ry	rightChainstay_rz	leftChainstay_rx	leftChainstay_ry	leftChainstay_rz	steeringTube_rx	steeringTube_ry	steeringTube_rz	frontWheel_rx	frontWheel_ry	frontWheel_rz	seatpost_tx	saddle_rz	saddle_tx	saddle_ty	crankSpindle_rx	crankSpindle_ry	crankSpindle_rz	leftPedal_rz	rightPedal_rz
      0.00500000	    -18.61519225	      2.29968725	      4.14450967	      0.10547093	      1.07756233	     -0.25955051	     41.93223790	    -12.11184392	    -13.21446706	     43.87904316	      0.76583378	     14.73922337	     13.94319118	    -20.00000000	     94.92305275	     -4.62790157	     -1.99871569	    106.38390983	      1.85674950	     29.21808542	     12.00134955	    -20.00000000	    -57.45819651	      2.14090069	     -5.25929874	    107.83267841	     -1.93761310	     75.92088680	      2.89143777	     14.48838898	     -0.00000000	      0.00000000	    107.42672511	     -1.52922305	     84.27802497	      0.42976483	      5.26213107	     -0.00000000	     -0.00000000	      0.00000000	     -0.00000000	      0.00000000	      0.00000000	      0.00000000	     -0.00000000	     -0.00000000	      2.43326466	      0.00000000	     -0.00000000	      0.00000000	     -0.00000000	     -0.00000000	      0.00000000	      0.00000000	      0.00000000	      0.00000000	    116.95177603	      0.00000000	    130.23162439	    126.14939591
      0.01000000	    -18.61669678	      2.30241343	      4.14419917	      0.10546951	      1.07756763	     -0.25954166	     41.93496951	    -12.11251619	    -13.21173070	     43.87619030	      0.76578398	     14.73710689	     13.94265367	    -20.00000000	     94.92425921	     -4.62971214	     -2.00074639	    106.38559326	      1.85677888	     29.22005043	     12.00241931	    -20.00000000	    -57.45637609	      2.13739650	     -5.26117770	    107.83257663	     -1.93680119	     75.92370640	      2.89065048	     14.48548791	      0.00000000	     -0.00000000	    107.42678279	     -1.53023267	     84.27759091	      0.43079574	      5.26264580	     -0.00000000	     -0.00000000	      0.00000000	      0.00000000	      0.00000000	      0.00000000	     -0.00000000	     -0.00000000	     -0.00000000	      2.43404931	     -0.00000000	     -0.00000000	      0.00000000	      0.00000000	     -0.00000000	     -0.00000000	     -0.00000000	     -0.00000000	     -0.00000000	    116.94568170	     -0.00000000	    130.22533496	    126.14442641
      0.01500000	    -18.61953814	      2.30213491	      4.14485830	      0.10548628	      1.07756917	     -0.25953321	     41.93695142	    -12.11268426	    -13.21133042	     43.87775804	      0.76581135	     14.73946554	     13.94050229	    -20.00000000	     94.92723072	     -4.63088926	     -1.99974456	    106.38914788	      1.85684092	     29.21695015	     12.00506957	    -20.00000000	    -57.45448377	      2.13348876	     -5.26392269	    107.83095213	     -1.93720388	     75.92718472	      2.89112530	     14.48196606	      0.00000000	     -0.00000000	    107.42520244	     -1.53004981	     84.27666845	      0.43058249	      5.26360636	      0.00000000	     -0.00000000	     -0.00000306	      0.00000000	      0.00000000	     -0.00000306	     -0.00000000	     -0.00000000	      0.00000000	      2.43851107	     -0.00000000	      0.00000000	      0.00000000	     -0.00000000	     -0.00000000	      0.00000000	     -0.00000000	      0.00000000	     -0.00000000	    116.94181325	     -0.00000000	    130.21710362	    126.14254612
      0.02000000	    -18.62014428	      2.28993952	      4.15947592	      0.10556630	      1.07755792	     -0.25960720	     41.94206137	    -12.11164348	    -13.19548674	     43.88106033	      0.76586898	     14.74174291	     13.93036145	    -20.00000000	     94.92253076	     -4.64700898	     -2.00585374	    106.38718519	      1.85680666	     29.21551815	     12.01866365	    -20.00000000	    -57.45476044	      2.15486730	     -5.27120869	    107.83263769	     -1.84284057	     75.94612139	      2.79436009	     14.45842321	      0.00000000	      0.00000000	    107.43822404	     -1.62643212	     84.28773934	      0.53052538	      5.25747455	     -0.00000000	      0.00000000	     -0.00000306	     -0.00000000	      0.00000000	     -0.00000306	      0.00000000	     -0.00000000	      0.00000000	      2.39798727	      0.00000000	     -0.00000000	      0.00000000	     -0.00000000	     -0.00000000	     -0.00000000	      0.00000000	     -0.00000000	     -0.00000000	    116.93748185	     -0.00000000	    130.21115399	    126.14164648
      0.02500000	    -18.61433686	      2.29216210	      4.14876430	      0.10555454	      1.07757977	     -0.25959774	     41.94525524	    -12.10980632	    -13.19829488	     43.90274675	      0.76624748	     14.72491207	     13.91999617	    -20.00000000	     94.91592134	     -4.64658102	     -2.00184749	    106.37071008	      1.85651912	     29.20779344	     12.01967217	    -20.00000000	    -57.46544997	      2.11294082	     -5.27185000	    107.83682108	     -1.92514868	     75.93553247	      2.87887419	     14.47288260	     -0.00000000	      0.00000000	    107.43272452	     -1.54262400	     84.27508964	      0.44356337	      5.26596166	     -0.00000000	      0.00000000	     -0.00000306	      0.00000000	      0.00000000	     -0.00000306	     -0.00000000	     -0.00000000	     -0.00000000	      2.45186390	     -0.00000000	     -0.00000000	      0.00000000	     -0.00000000	     -0.00000000	     -0.00000000	      0.00000000	      0.00000000	      0.00000000	    116.96530608	     -0.00000000	    130.24266038	    126.13832007
